<svg width="150" height="150" viewBox="0 0 150 150" fill="none" xmlns="http://www.w3.org/2000/svg">
<rect width="150" height="150" fill="white"/>
<path d="M45.9848 41.192L46.0808 40.808L46.9448 39.944C47.6488 38.28 48.4168 37.288 49.2488 36.968C49.6968 36.84 50.2728 36.68 50.9768 36.488C51.6808 36.296 52.6088 35.816 53.7608 35.048C54.2088 34.152 55.1368 33.768 56.5448 33.896C57.9528 33.96 59.3288 34.408 60.6728 35.24C62.0808 36.008 63.2008 37.096 64.0328 38.504C64.9288 39.912 65.1528 41.384 64.7048 42.92C64.2568 44.392 63.8728 45.512 63.5528 46.28C63.2968 46.984 63.0088 47.656 62.6888 48.296C62.4328 48.936 62.0808 49.672 61.6328 50.504C61.2488 51.272 60.7368 52.328 60.0968 53.672L56.9288 60.296C56.6088 61.128 56.3208 61.608 56.0648 61.736C55.8728 61.864 55.6808 62.088 55.4888 62.408C56.0648 62.28 56.5448 62.184 56.9288 62.12C57.3128 62.056 57.6968 61.992 58.0808 61.928C58.9768 61.8 60.0008 61.672 61.1528 61.544C61.8568 61.672 62.4648 61.736 62.9768 61.736H64.3208C65.0888 61.736 66.0168 61.96 67.1048 62.408C68.1928 62.792 68.8968 63.496 69.2168 64.52C69.5368 65.544 69.5688 66.6 69.3127 67.688C69.0568 68.712 68.5448 69.672 67.7768 70.568C67.0088 71.464 66.0168 71.944 64.8008 72.008C59.2328 73.544 55.2648 74.376 52.8968 74.504L52.3208 75.176V75.272C51.6808 76.808 50.9768 78.76 50.2088 81.128C49.5048 83.432 48.7048 85.96 47.8088 88.712C46.9768 91.4 46.1128 94.216 45.2168 97.16C44.3208 100.04 43.3928 102.824 42.4328 105.512C39.3608 114.536 37.1208 119.432 35.7128 120.2C35.2008 120.456 34.6568 120.616 34.0807 120.68C33.5688 120.808 33.2808 120.904 33.2168 120.968C30.9768 120.84 29.1208 120.392 27.6488 119.624C26.1768 118.856 25.1848 118.12 24.6728 117.416C24.1608 116.712 24.0328 115.912 24.2888 115.016C25.5048 103.88 27.9368 91.688 31.5848 78.44C30.3048 78.44 29.4088 78.568 28.8968 78.824C27.9368 79.336 26.7848 79.624 25.4408 79.688H25.3448C24.3208 79.624 23.3928 79.144 22.5608 78.248C21.7288 77.352 21.2168 76.328 21.0248 75.176C20.8328 74.024 21.0248 72.84 21.6008 71.624C22.1768 70.408 23.3288 69.448 25.0568 68.744C27.1048 68.168 28.6088 67.688 29.5688 67.304C31.4248 66.536 32.9608 65.992 34.1768 65.672C35.4568 65.352 36.1608 65.16 36.2888 65.096C36.4808 64.968 36.6088 64.872 36.6728 64.808C36.8648 64.68 37.3448 64.616 38.1128 64.616C38.4968 62.76 38.8808 60.872 39.2648 58.952C39.6488 57.032 40.1288 55.08 40.7048 53.096C41.9848 48.488 43.7448 44.52 45.9848 41.192ZM80.6933 37.64C82.1013 35.912 83.7973 34.952 85.7812 34.76C87.7653 34.568 89.6853 34.888 91.5413 35.72C93.3973 36.488 94.9653 37.704 96.2453 39.368C97.5893 40.968 98.3253 42.76 98.4533 44.744L97.5893 47.528C98.2933 48.36 98.9013 49.032 99.4133 49.544C99.9893 50.056 100.309 50.856 100.373 51.944C100.757 52.84 99.1573 56.392 95.5733 62.6C94.1013 65.16 92.5333 67.848 90.8693 70.664C89.2693 73.416 87.9573 75.88 86.9333 78.056C87.7013 77.864 88.4693 77.704 89.2373 77.576C90.0053 77.448 90.7733 77.288 91.5413 77.096C96.2773 75.88 99.4773 75.272 101.141 75.272C102.805 75.208 104.181 75.368 105.269 75.752C108.213 76.904 109.749 78.696 109.877 81.128C108.981 83.24 105.621 86.184 99.7973 89.96C98.4533 90.792 97.3653 91.496 96.5333 92.072L88.1813 98.024C87.7333 98.728 87.4133 99.4 87.2213 100.04V100.136C87.3493 100.456 88.1493 100.904 89.6213 101.48C91.1573 102.056 92.4693 102.568 93.5573 103.016C96.1173 104.168 98.3893 105.736 100.373 107.72C101.013 108.424 101.429 109.48 101.621 110.888C101.813 112.232 101.589 113.48 100.949 114.632C100.373 115.784 99.3173 116.616 97.7813 117.128C96.2453 117.64 94.1013 117.416 91.3493 116.456C87.3173 114.664 82.5493 110.664 77.0453 104.456C76.4053 106.696 75.7653 108.904 75.1253 111.08C74.5493 113.192 73.9093 115.368 73.2053 117.608C72.2453 119.784 70.0053 120.808 66.4853 120.68C65.0773 120.68 63.7973 120.392 62.6453 119.816C61.5572 119.24 60.9172 118.472 60.7252 117.512C60.2132 116.104 59.9572 115.048 59.9572 114.344C59.9572 113.704 60.1172 112.936 60.4372 112.04C61.9093 108.328 62.8373 105.384 63.2213 103.208C63.6053 100.968 63.8613 99.656 63.9893 99.272C62.1973 98.12 61.1412 96.296 60.8212 93.8C60.4372 91.368 61.0132 89.192 62.5493 87.272C64.5973 86.504 66.0693 85.928 66.9653 85.544C67.3493 83.112 67.9893 80.488 68.8853 77.672C70.4853 72.616 71.7013 68.232 72.5333 64.52C73.4293 60.808 74.6773 56.616 76.2773 51.944C77.9413 47.208 79.4133 42.44 80.6933 37.64ZM127.79 116.648C127.022 118.184 125.87 119.528 124.334 120.68C122.862 121.896 121.358 122.728 119.822 123.176C118.35 123.688 117.358 123.944 116.846 123.944C116.334 123.944 115.022 123.784 112.91 123.464H112.814C112.75 123.464 112.654 123.4 112.526 123.272C109.198 121.736 107.534 119.656 107.534 117.032C107.534 114.728 108.718 112.424 111.086 110.12C114.286 107.048 117.742 105.64 121.454 105.896C121.902 105.96 122.958 106.216 124.622 106.664C124.814 106.856 124.942 106.952 125.006 106.952C128.654 109.768 129.582 113 127.79 116.648Z" fill="#484848"/>
</svg>
